<?xml version="1.0" standalone="no"?>
<!DOCTYPE svg PUBLIC "-//W3C//DTD SVG 1.1//EN" "http://www.w3.org/Graphics/SVG/1.1/DTD/svg11.dtd" >
<svg xmlns="http://www.w3.org/2000/svg">
<metadata>Generated by IcoMoon</metadata>
<defs>
<font id="icomoon" horiz-adv-x="1024">
<font-face units-per-em="1024" ascent="960" descent="-64" />
<missing-glyph horiz-adv-x="1024" />
<glyph unicode="&#x20;" d="" horiz-adv-x="512" />
<glyph unicode="&#x31;" d="M85 508.5q0 35.5 25.5 60.5 25.5 25.5 60.5 25.5h170l43 85 12 22q4 7 12.5 14t18.5 7h170q7.5 0 13.75-3t11.75-10 8.75-13 8.75-17l43-85h170q35 0 60.5-25.5 25.5-25 25.5-60.5v-341q0-35.5-25.5-60-25-25-60.5-25h-682q-35 0-61 25-25 25-25 60v341zM319.5 359q0-79.5 56-135.5t136.5-56q79.5 0 135.5 56t56 135.5q0 80-56 136-55.5 56.5-135.5 56.5t-136.5-56.5q-56-56-56-136zM405.5 359q0 44 31 76 30.5 31.5 75.5 31.5 44.5 0 75.5-31.5 31-32 31-76 0-43.5-31-75.5-31-31-75.5-31t-75.5 31q-31 32-31 75.5zM780.5 496q-6-6-9.25-13.75t-3.25-16 3-16 9.5-14.25 14.25-9.5 16-3 16 3.25 13.75 9.25q12.5 13 12.5 30.25t-12.5 29.75-29.75 12.5-30.25-12.5z" />
<glyph unicode="&#x35;" d="M257.5 837q0 17.5 5.5 32.5t18.5 28q25.5 25.5 61 25.5 1 0 2.25-0.5t1.75-0.5h334q0.5 0 1.75 0.5t2.25 0.5q35.5 0 61-25.5 13-13 18.5-28t5.5-32.5v-827q0-33-23.5-58-11.5-12.5-25.75-19.75t-30.75-7.25h-352q-16.5 0-30.75 7.25t-25.75 19.75q-23.5 25-23.5 58v827zM300.5 96h426v655h-426v-655zM478 45.5q-7.5-7.5-11.25-16.75t-3.75-18.75 3.75-18.5 11.25-16.5 16.75-11 18.75-3.5 18.5 3.5 16.5 11 11.25 16.5 3.75 18.5-3.75 18.75-11.25 16.75-16.5 11.25-18.5 3.75-18.75-3.75-16.75-11.25zM466.5 837q0-8 8-8h78q8 0 8 8 0 9.5-8 9.5h-78q-8 0-8-9.5z" />
<glyph unicode="&#x36;" d="M183.5 809.5q0 18.5 11.25 30.25t29.75 11.75h575q18.5 0 29.75-11.75t11.25-30.25v-771q0-18.5-11.25-29.75t-29.75-11.25h-575q-18.5 0-29.75 11.25t-11.25 29.75v771zM256 82.5h512v682h-512v-682zM491.5 32.5q0-8.5 6-14.5t14.5-6 14.5 6 6 14.5q0 10.5-6.5 15.75t-14 5.25-14-5.25-6.5-15.75z" />
<glyph unicode="&#x37;" d="M128 231v470q0 16 13.5 29 14 13 29.5 13h682q15.5 0 29.5-13 13.5-13 13.5-29v-470l85-85q0-18-11.75-30.5t-30.25-12.5h-854q-18.5 0-30.25 12t-11.75 31zM171 231h682v470h-682v-470zM392 150q0-4 13.5-4h213q13.5 0 13.5 4 0 1-1 1l-27 27.5q-3.5 3.5-16 3.5h-152q-13 0-15-3.5l-28-27.5z" />
<glyph unicode="&#x44;" d="M50 414.5v21.5l311.5 168.5v-75.5l-190.5-105.5 190.5-104.5v-76zM341 124.5l262 598h80l-262-598h-80zM661.5 243v76l189.5 104.5-189.5 105.5v75.5l310.5-168.5v-21.5z" />
<glyph unicode="&#x45;" d="M118 338.5h148v-342h-148v342zM331-3.5v640h149.5v-640h-149.5zM543.5-3.5v854h149.5v-854h-149.5zM758-3.5v512h148v-512h-148z" />
<glyph unicode="&#x57;" d="M179 346.5q-15.5 77 0 154l-106.5 88q28 74 77 133l129-49q56.5 53.5 134 77.5l22.5 136.5q38 6 77 6 38.5 0 77-6l22.5-136.5q77.5-24 134-77.5l129 49q49-59 77-133l-106.5-88q15.5-77 0-154l106.5-88q-28-74-77-133l-129 49q-56.5-53.5-134-77.5l-22.5-136.5q-38.5-6-77-6-39 0-77 6l-22.5 136.5q-77.5 24-134 77.5l-129-49q-49 59-77 133zM391 544q-50-50-50-120.5 0-71 50-121t121-50q70.5 0 120.5 50 50.5 50.5 50.5 121 0 70-50.5 120.5t-120.5 50.5q-70.5 0-121-50.5z" />
<glyph unicode="&#x60;" d="M83-5.5l241.5 724 217 217h120l-213-214q-20 5-35 5-32 0-50-16.5l1-1-3-1q-17-48-34.5-98.25t-35.5-104.25q-17.5-53.5-31-94.5t-23-71l-18.5-59q9.5 0 21-4.25t24.5-12.25q27-16.5 49.5-39 11.5-11.5 21.25-23.75t17.75-25.25q16.5-27 16.5-46 101 34 207.25 69.5t219.75 73l1 3 1-1q16.5 18 16.5 50 0 15-5 35l214 213v-120l-217-217zM822.5 935.5h120.5l-315.5-315.5q-40 33.5-69.5 51.5zM1024 854.5v-121l-264-264q-18 29.5-51.5 69.5z" />
<glyph unicode="&#x63;" d="M90 777q36.5 36 83 55.25t97.5 19.25q50 0 97.25-19t83.75-55.5q40-40.5 60.5-96.5 20 56 60.5 96.5 36.5 36.5 83.75 55.5t97.25 19q51 0 97.5-19.25t83-55.25q25-24.5 41.75-54.25t25-61.75 8.25-65.5-8.25-65.5-25-61.5-41.75-54q-46.5-45.5-120.75-120.75t-180.25-180.75l-121-120.5-422 422q-37 37-55.75 84.5t-18.75 97 18.5 96.75 56 84.25z" />
<glyph unicode="&#x64;" d="M90 778q37 37 84.25 55.5t96.75 18.75 96.5-18.25 84-56q19.5-20.5 35-44t25.5-52.5q9.5 27.5 24.75 51.5t35.75 45q24.5 25 54 41.75t61.5 25 65.5 8.25 65.5-8.25 61.75-25 54.25-41.75q36-36.5 55.25-83.5t19.25-97-18.75-97-55.75-84l-302-302.5-121-120.5-422 423q-37 37-55.5 84.25t-18.5 96.5 18.5 96.5 55.5 84.25zM57.5 597.5q0-89 62.5-151.5l392-392q28 28.5 67.5 68.25t92 91.75l128 127.5 104.5 104.5q62.5 62.5 62.5 151.5 0 88-62.5 150.5t-150.5 62.5q-90.5 0-151.5-62.5-14.5-14.5-26.25-33.75t-21.75-42.75l-42-99.5-41 97q-10 24-22 44t-27 35q-61 62.5-151.5 62.5-88 0-150.5-62.5t-62.5-150.5z" />
<glyph unicode="&#x65;" d="M58.5 528l328.5 24.5 125 305 125-305 328.5-24.5-252-213 78-319.5-279.5 173-279.5-173 78 319.5z" />
<glyph unicode="&#x66;" d="M58.5 528l328.5 24.5 125 305 125-305 328.5-24.5-252-213 78-319.5-279.5 173-279.5-173 78 319.5zM158.5 495l196-165.5-60.5-249 218 135 218-135-60.5 249 196 165.5-256 19.5-97.5 237.5-97.5-237.5z" />
<glyph unicode="&#x67;" d="M84 738q0 11.5 7.5 19t19 7.5h802q11 0 18.75-7.5t7.75-19v-545q0-11.5-7.75-19t-18.75-7.5h-134.5v-161l-159.5 161h-508q-11.5 0-19 7.5t-7.5 19v545z" />
<glyph unicode="&#x68;" d="M85 409q0 6 4.5 10.25t10 4.25h113.5v-149.5q0-30 16.5-47 15-16.5 42.5-16.5h1.5q21.5 0 87.75 0.25t179.25 0.75v-114.5q0-6-4-10.25t-10-4.25h-270.5l-85-86v86h-71.5q-5.5 0-10 4.25t-4.5 10.25v312zM256 743q0 9.5 6 15.5t15.5 6h640q9 0 15.25-6.25t6.25-15.25v-469q0-8.5-6.5-15t-15-6.5h-106.5v-128l-128 128h-405.5q-9 0-15.25 6.25t-6.25 15.25v469z" />
<glyph unicode="&#x6f;" d="M256 594.5q0 106 75 181t181 75 181-75 75-181q0-53-20.5-101.5l-235.5-549-233.5 546q-10.5 25-16.5 50.75t-6 53.75zM421.5 685q-37.5-37.5-37.5-90.5t37.5-90.5 90.5-37.5 90.5 37.5 37.5 90.5-37.5 90.5-90.5 37.5-90.5-37.5z" />
<glyph unicode="&#x71;" d="M213 551.5q31.5 0 58-13.5t44.5-37.5l368.5 158.5q-0.5 3-0.75 8.25t-0.25 12.25q0 53 37.5 90.5t90.5 37.5 90.5-37.5 37.5-90.5-37.5-90.5-90.5-37.5q-30 0-56.75 13.25t-43.75 35.75l-370.5-158.5q0.5-3 0.75-7.5t0.25-11q0-7-0.25-11.75t-0.75-7.75l369.5-158.5q17 23 43.5 36.5t58 13.5q53 0 90.5-37.5t37.5-90.5-37.5-90.5-90.5-37.5-90.5 37.5-37.5 90.5q0 6.5 0.25 11t0.75 7.5l-369.5 158.5q-18-22.5-44.75-35.75t-56.75-13.25q-53 0-90.5 37.5t-37.5 90.5 37.5 90.5 90.5 37.5z" />
<glyph unicode="&#x74;" d="M5 91.5q222 11.5 301 92.5-77 3-124 45-47.5 42-61 104.5 28-6.5 51-6.5 14 0 33 3.5-67.5 11.5-114.5 63.5-46.5 51.5-46.5 114.5 0 6 1 14.75t3 20.25l17-7.5 22-9q8.5-4 20.75-6.75t20.25-2.75q-84 69.5-84 158v4q0 38 7.25 66.75t20.25 47.75q85.5-111 206-165.5 11.5-5 20.25-8.5t15.75-6q8.5-3 22.25-7t31.75-9.5l6.5-2q1 0 3-0.5t3-0.5l31.5-6q4.5-0.5 14.5-2.75t25.5-6.25q16-4 27.5-5.75t18.5-1.75q3.5 0 6.5 1-4.5 20-4.5 42 0 58.5 26.5 109t74 80q48 30 105.5 30 80 0 149.5-65.5 78 10.5 141.5 60.5-21.5-78.5-90.5-128 31.5 5.5 60.25 13t54.75 17.5q-15.5-33-40-56.5t-61.5-46.5v-13.5q0-3-0.5-10t-0.5-10.5h1q0-62-12.25-120.5t-35-112.25-55.5-101.75-73.25-88.5-88.25-72.75-101.5-55-112.25-35-120-12.25q-81.5 0-163 26-83 26-153.5 69z" />
<glyph unicode="&#x76;" d="M299 466.5v128h85v129q0 53.5 18.25 86.5t48.25 50.5q21 12.5 38.5 18.25t41.5 9.25q12 1.5 21 2.5t15.5 1.5 14 0.5h16q54 0 128-15.5l-23.5-136q-2.5 0.5-7 1t-11 1.5q-13 2-24.75 3.25t-22.75 1.25q-81 0-81-68.5v-85h146.5l-9.5-128h-137v-470h-171v470h-85z" />
<glyph unicode="&#xc7;" d="M43 380.5l469 470 469-470h-85l-384 384-384-384h-85zM213 380.5l299 299 299-299v-384h-192.5v384h-213v-384h-192.5v384zM683 764.5v86h128v-214z" />
<glyph unicode="&#xc9;" d="M85 167.5v427l380-284.5q19-14.5 47-14.5t47 14.5l211.5 158 168.5 126.5v-427l-214 171 200.5-200.5q-12-13.5-29.5-13.5h-768q-17.5 0-29.5 13.5l200.5 200.5zM85 636.5q0 9 3.5 16.75t9.25 13.5 13.5 9.25 16.75 3.5h768q9 0 16.75-3.5t13.5-9.25 9.25-13.5 3.5-16.75l-168-125.5-212-159q-18-13.5-47-13.5t-47 13.5l-211.5 158z" />
<glyph unicode="&#xd1;" d="M85 82.5v426l380-284.5q18-13.5 47-13.5t47 13.5l211.5 158 168.5 126.5v-426l-214 170 200.5-200.5q-12.5-12.5-29.5-12.5h-768q-17 0-29.5 12.5l200.5 200.5zM85 551.5l380 284.5q21 15.5 47 15.5t47-15.5l120.5-90.5 139-104q37-28 67-50.25t53.5-39.75q-24.5-18-110-82t-232-174l-38-28.5q-21-15.5-47-15.5t-47 15.5l-153 114.5-119.5 90z" />
<glyph unicode="&#xd6;" d="M85 82.5v426l380-284.5q18-13.5 47-13.5t47 13.5l211.5 158 168.5 126.5v-426l-214 170 200.5-200.5q-12.5-12.5-29.5-12.5h-768q-17 0-29.5 12.5l200.5 200.5zM85 551.5l380 284.5q21 15.5 47 15.5t47-15.5l380-284.5-107.5-80-20.5-16.5v53.5q0 9-3.5 16.75t-9.25 13.5-13.5 9.25-16.75 3.5h-512q-9 0-16.75-3.5t-13.5-9.25-9.25-13.5-3.5-16.75v-53.5q-12.5 10-30.5 23.5l-42 31.5z" />
<glyph unicode="&#xdc;" d="M128-3.5l31.5 221q4.5 32.5 29.5 55.5 25.5 22.5 57 22.5h532q31.5 0 56.5-22.5 25.5-22.5 30-55.5l31.5-221h-768zM341 679.5q0 70.5 50 120.5 50.5 50.5 121 50.5 70 0 120.5-50.5t50.5-120.5q0-11.5-1.75-22.25t-4.25-20.75l-40-157.5h-1q-10-43-44.5-71-34-27.5-79.5-27.5t-79.5 27.5q-34.5 28-44.5 71h-1l-40 157.5q-2.5 10-4.25 20.75t-1.75 22.25z" />
<glyph unicode="&#xdd;" d="M922.5 144h-104.5l-22.5 157.5q-2 13.5-9.25 24.75t-17.75 18.75h132.5q10.5 0 20.25-4t17.5-11 13.25-16.5 7-20.5l21-149h-57.5zM832.5 574.5l-27-106.5q-3.5-14-11.5-26t-19-20.75-24.75-13.75-28.75-5-28.75 5-24.75 13.75-18.75 20.75-11.25 26l-6 23.5 30.5 109.5q5 17 5 37.5 0 30-12.5 58 14 10 30.75 16t35.75 6q24 0 44.75-9t36.5-24.75 24.75-36.5 9-44.75q0-14.5-4-29v0zM630 599.5l-29-112.5h-0.5q-3.5-15-11.75-27.5t-20-22-26.25-14.75-30.5-5.25-30.5 5.25-26 14.75-20 22-12 27.5l-29 112.5q-2 7.5-3 15t-1 16q0 25 9.5 47.25t26 38.75 38.75 26 47.25 9.5q25.5 0 47.75-9.5t38.75-26 26-38.75 9.5-47.25q0-16-4.5-31h0.5zM360.5 601h-0.5l30.5-109.5-6-23.5q-3.5-14-11.25-26t-18.75-20.75-24.75-13.75-28.75-5-28.75 5-24.75 13.75-18.75 20.75-11.25 26h-0.5l-27 106.5q-4 14.5-4 29 0 24 9 44.75t24.75 36.5 36.5 24.75 44.75 9q19 0 35.75-6t31.25-16q-13-27.5-13-58 0-18.5 5.5-37.5v0zM227.5 301.5l-22.5-157.5h-162.5l21.5 149q1.5 11 6.75 20.5t13.25 16.5 17.5 11 20 4h132.5q-10-7.5-17.25-18.75t-9.25-24.75v0zM322 357h380q11 0 21.5-4.25t18.75-11.75 14-17.75 7.25-21.75l22.5-157.5h-547.5l22.5 157.5q1.5 11.5 7.25 21.75t14 17.75 18.5 11.75 21.25 4.25v0z" />
<glyph unicode="&#xe3;" d="M128 167.5l256 256-256 256 128 128 256-256 256 256 128-128-256-256 256-256-128-128-256 256-256-256z" />
<glyph unicode="&#xe4;" d="M85 642.5q0 40.5 15.75 78.5t45.75 68 68 45.75 78.5 15.75q39 0 77.5-15.5t69-46l72.5-72.5q30-30 45.25-68t15.25-78.5q0-27.5-7.5-53.5l-199.5 200q-30.5 30.5-72.5 30.5-43.5 0-74-30.5t-30.5-74q0-42 30.5-72.5l200-200q-25.5-7-53.5-7-39.5 0-78 15.25t-68.5 45.25l-72.5 72.5q-30 30-45.75 68t-15.75 78.5zM313.5 570q0 10.5 4 20t11.25 16.75 16.75 11.25 20 4q22 0 37-15l293-293q15-15 15-37 0-10.5-4-20t-11.25-16.75-16.75-11.25-20-4q-22 0-37 15l-293 293q-15 15-15 37zM451.5 277q0 27 7.5 53.5 76-76.5 125.75-126.25l73.75-73.75q30.5-30.5 72.5-30.5 43.5 0 74 30.5t30.5 74q0 42-30.5 72.5l-200 199.5q26 7.5 53.5 7.5 86 0 146.5-60.5l72.5-72.5q61.5-61.5 61.5-146.5t-61.5-146.5q-30-30-68.25-45.75t-78.25-15.75q-39 0-77.25 15.25t-69.25 46.25l-72.5 72.5q-30 30-45.25 68t-15.25 78.5z" />
<glyph unicode="&#xe5;" d="M171 466.5l170-171 512 512 128-128-640-640-129.25 129.25t-168.75 169.75z" />
<glyph unicode="&#xe7;" d="M384 807.5q0 35 25 60t60 25h86q35 0 60-25t25-60h213q9 0 16.75-3.5t13.5-9.25 9.25-13.5 3.5-16.75q0-17.5-12.75-29.75t-30.25-12.25h-682q-17.5 0-30.25 12.25t-12.75 29.75q0 9 3.5 16.75t9.25 13.5 13.5 9.25 16.75 3.5h213zM213 679.5h598v-640q0-35.5-25.5-60-25-25-60.5-25h-426q-35 0-61 25-25 25-25 60v640zM299 61q0-9.5 6-15.5t14.5-6q9.5 0 15.5 6t6 15.5v512q0 9-6.25 15.25t-15.25 6.25q-8.5 0-14.5-6.5t-6-15v-512zM427 61q0-9.5 6-15.5t14.5-6q9.5 0 15.5 6t6 15.5v512q0 9-6.25 15.25t-15.25 6.25q-8.5 0-14.5-6.5t-6-15v-512zM597 807.5q0 17.5-12.25 30.25t-29.75 12.75h-86q-17.5 0-29.75-12.75t-12.25-30.25h170zM555 61q0-9.5 6-15.5t14.5-6q9.5 0 15.5 6t6 15.5v512q0 9-6.25 15.25t-15.25 6.25q-8.5 0-14.5-6.5t-6-15v-512zM683 61q0-9.5 6-15.5t14.5-6q9.5 0 15.5 6t6 15.5v512q0 9-6.25 15.25t-15.25 6.25q-8.5 0-14.5-6.5t-6-15v-512z" />
<glyph unicode="&#xe8;" d="M234.5-3.5v427h85v128q0 80 56 135.5 56 56 136.5 56 79.5 0 135.5-56t56-135.5v-128h86v-427h-555zM405.5 423.5h213v128q0 44.5-31 75.5t-75.5 31-75.5-31-31-75.5v-128zM469 252.5q0-23 21.5-37v-91h43v91q21.5 14 21.5 37 0 9-3.5 16.75t-9.25 13.5-13.5 9.25-16.75 3.5-16.75-3.5-13.5-9.25-9.25-13.5-3.5-16.75z" />
<glyph unicode="&#xe9;" d="M213 787q0 35 25.5 60.5t60.5 25.5h256v-128q0-53 37.5-90.5t90.5-37.5h128v-512q0-35-25.5-60.5t-60.5-25.5h-426q-35 0-60.5 25.5t-25.5 60.5v682zM319.5 255.5q0-9 6.25-15.25t15.25-6.25h342q8.5 0 14.5 6t6 15.5q0 8.5-6 15t-14.5 6.5h-342q-8.5 0-15-6.5t-6.5-15zM319.5 381.5q0-8.5 6.5-14.5t15-6h342q8.5 0 14.5 6t6 14.5q0 9.5-6 15.5t-14.5 6h-342q-9 0-15.25-6.25t-6.25-15.25zM319.5 509.5q0-8.5 6.5-14.5t15-6h342q8.5 0 14.5 6t6 14.5q0 9.5-6 15.5t-14.5 6h-342q-9 0-15.25-6.25t-6.25-15.25zM319.5 637.5q0-8.5 6.5-14.5t15-6h149.5q9.5 0 15.5 6t6 14.5q0 9.5-6 15.5t-15.5 6h-149.5q-9 0-15.25-6.25t-6.25-15.25zM597 873l214-214h-128q-35 0-60.5 25.5t-25.5 60.5v128z" />
<glyph unicode="&#xea;" d="M171-3.5v427h384v171q0 79 56 135 56.5 56.5 135.5 56.5 79.5 0 136-56.5t56.5-135v-128l-86-43v171q0 44-31 75-31 31.5-75.5 31.5-44 0-75.5-31.5-31-31-31-75v-171h85v-427h-554zM405.5 252.5q0-24.5 21.5-37v-91h42v91q21.5 12.5 21.5 37 0 18-12.5 30.5t-30.5 12.5q-17.5 0-29.75-12.75t-12.25-30.25z" />
<glyph unicode="&#xeb;" d="M85 466.5h854v-384q0-9-3.5-16.75t-9.25-13.5-13.5-9.25-16.75-3.5h-768q-9 0-16.75 3.5t-13.5 9.25-9.25 13.5-3.5 16.75v384zM85 508.5v86q0.5 2.5 2.5 5.5t6.5 7l68 60q14 12.5 29.5 12.5h149.5q16.5 0 30.5-12.5l68-60q11-12.5 29.5-12.5h427q17.5 0 30.25-12.25t12.75-29.75v-44h-854z" />
<glyph unicode="&#xec;" d="M158.5 710l307.5-213h1q18.5-12 45-12 13 0 25 3.25t23 10.75l305.5 211 1-1q12 13.5 29.25 13.5t30.25-13 13-30.25-13.5-29.25l1-1-377.5-503q-12-21.5-37-21.5t-37 21.5l-377.5 503 1 1q-7 6-10.25 13.75t-3.25 15.75 3.25 16 9.25 14q6.5 6.5 14.5 9.75t16 3.25 15.75-3.5 13.75-10z" />
<glyph unicode="&#xed;" d="M97.5 198l377.5 503q12 21.5 37 21.5t37-21.5l377.5-503-1-1q13.5-12 13.5-29.25t-13-30.25-30.25-13-29.25 13.5l-1-1-305.5 210.5q-11.5 8-23.5 11.25t-24.5 3.25q-26 0-45-12.5h-1l-307.5-212.5-1 1q-6-7-13.75-10.25t-15.75-3.25-16 3.25-14.5 9.75q-6 6-9.25 14t-3.25 16 3.25 15.75 10.25 13.75z" />
<glyph unicode="&#xf4;" d="M85 359q0 63.5 36.5 112.5 36.5 50 94.5 69.5 11 59 58.5 99 47 39.5 109.5 39.5 44 0 80.75-20.5t60.75-55.5q41 33 93 33 62.5 0 106-44 43.5-43.5 43.5-105.5 0-3.5-0.5-9t-1.5-13.5q55.5-7 92.5-49 37.5-42 37.5-98.5 0-62-43.5-106-43.5-43.5-106-43.5h-469q-80.5 0-136.5 56t-56 135.5z" />
<glyph unicode="&#x100;" d="M153 457q56.5 21.5 101 30.75t83.25 6.5 74.5-17.5 75.25-40.75q-2-7.5-7.75-27.5t-13.5-47.25-17-58.75-18-62-16.75-57.25-13-44.25q-38 26.5-74.5 41t-76 17.25-84.25-7-99.75-31.25q2 7.5 8.5 29.5t15 51.5 18.25 63 18.5 64.25 15.75 54.75 10.5 35v0zM252 808.5q56.5 21.5 101 30.75t83.25 6.25 74.5-17.75 75.25-40.75q-2-7.5-7.75-27.5t-13.5-47.25-17-58.75-18-62-16.75-57.25-13-44.25q-38 26.5-74.5 41t-76 17.25-84.25-6.75-99.75-31.5q2 7.5 8.5 29.5t15 51.75 18.25 63.25 18.5 64 15.75 54.75 10.5 35.25v0zM871 439q-56.5-22-101-31t-83.25-6.25-74.5 17.5-75.25 40.75q2 7.5 7.75 27.75t13.5 47.25 17 58.5 18 62 16.5 57.25 13.25 44.25q38-26.5 74.5-41t76-17 84.25 6.75 99.75 31.25q-2.5-7.5-8.75-29.5t-14.75-51.5-18.25-63-18.5-64.25-16-55-10.25-34.75v0zM772 87.5q-56.5-21.5-101-30.75t-83.25-6.25-74.5 17.75-75.25 40.75q2 7.5 7.75 27.5t13.5 47.25 17 58.75 18 62 16.5 57.25 13.25 44.25q38-26.5 74.5-41.25t76-17.25 84.25 7 99.75 31.5q-2.5-7.5-8.75-29.5t-14.75-51.75-18.25-63.25-18.5-64-16-54.75-10.25-35.25v0z" />
<glyph unicode="&#x101;" d="M444.5 466.5v313q112.5 22.5 223.75 44.25t223.75 44.25v-2q0.5-23.5 1-46.75t0.5-47.25v-213q0-8 0.75-20.5t1-25.5-0.5-24.25-3.25-17.25q-112.5-1.5-223.5-2.75t-223.5-2.25v0zM401.5 771.5q1.5 0 3-0.25t3-0.25q0-76.5-0.25-152.25t-0.25-152.25q-53-1-105.5-1.5t-105.5-1q-4 0-14.75-0.5t-22.25-0.75-20.75 0.25-10.75 2v251.5q68.5 14 136.75 27.5t137.25 27.5v0zM128 433.5q70-1 139.75-2t139.75-2q0-76.5-0.25-152.25t-0.25-151.75q-0.5-0.5-0.75-0.5t-0.75-0.5q-70 14-139 27.75t-139 27.75v126.75t0.5 126.75v0zM893.5 28q-113 22.5-224.5 44.5t-224.5 44.5v312.5l0.5 0.5 448.5-6v-396z" />
<glyph unicode="&#x102;" d="M678.5 866.5q1-40.5-7.75-68.75t-25.75-52.75q-4-6-9.75-11.25t-9.75-10.75q-14-18-34.75-29.5t-46.25-17.5q-8.5-2.5-16.5-1.75t-16.5 0.75q0 9.5-0.75 19.75t1.75 18.75q5.5 24 14 43.25t20 34.5 26.25 27.75 33.25 24q14.5 8.5 32.75 16t39.75 7.5v0zM657.5 666.5q48 1 82.75-13.25t59.75-36.75q7-5.5 12.25-11.5t10.75-13q1-1 4-4.5t2-4.5q-3.5-3.5-7.5-5.5t-8-5q-5-3.5-9.5-7.75t-9.5-8.25q-3-2-5-5t-4.5-6q-3-4-7.25-7.75t-7.25-8.25q-10-14.5-15.75-30.25t-11.25-36.25q-1-4-2-10.75t-1.5-14.5-0.5-15.25 1-12.5q2-10 2.75-19.75t3.75-18.25q4.5-14.5 11-27.75t14.5-24.75q10-14.5 23.75-27.25t28.25-22.75q2-1 6.25-3t8.75-4.25 8-4.75 4-4q-3.5-4-4.5-10.5t-3.5-12q-4-10-8-19.75t-9-19.25q-10.5-20-24.25-42.75t-30.25-44-35.5-38.5-40-25.75q-16-6.5-32-5.5t-31.5 5.25-29.75 10.25-25.75 10q-10 3.5-20.25 4.25t-21.25 3.25q-8.5 2-18.75 0.25t-16.75-3.25q-9-2.5-17.25-3.75t-16.75-4.75-20-8.5-24.5-8.75-26.75-5-26.25 2.75q-28 9-47.75 28.25t-35.25 40.75q-12 16.5-23.75 33t-22.75 34q-11.5 19-20 40.25t-17 42.25q-6.5 15.5-10.25 32.25t-8.25 32.75q-2.5 7-2.5 13.5t-2 13.5q-3 13.5-4.75 31.75t-1.75 37.75 1.75 37.75 5.75 31.25q16.5 58 46.5 99.25t82 63.75q14 6 29 8.25t31.5 6.25q5.5 1 12 0.75t12.75-1 11.75-2.25 9-2.5q8.5-2.5 16-4t15.5-4.5q14.5-6 29.5-11.75t31-10.25q12.5-3.5 24 0.75t20 7.75q16.5 7 33 12t34 10.5l30 6q2.5 1 5.25 0.5t4.25 0.5v0z" />
<glyph unicode="&#x103;" d="M408 804.5q7.5 1 13.5 4.25t12 5.75h7v1.5h4v1.5h5.5v1.5h6v1h7v1.5h7v1.5l22.5 1.5v1.5q2.5 0.5 8.5 0.75t12.5-0.25 12-1 7.5-1h13v-1.5h9.5v-1.5h7v-1.5h7.5q11.5-4 23-7.75t23-7.75q1 1.5 1.75 1.75t1.25 1.25v3h1.5v2.5q2 1 2.5 1.5v3l3 2.5v3h1.5v3h1.5q1 3 1 5.5l3 1.5v2.5h1.5v3h1.5v4q1 1 2 1.5t2 1.5v3l3 2.5v3h1.5v3q0.5 0 2.5 1v3q2.5 3.5 4.25 7t4.25 7h3v1.5h4l3-4.5t1.5-7q-4-2.5-5.75-8.25t-4.25-9.75l-3-1.5v-3h-1.5v-2.5h-1v-3l-3-2.5v-3l-3-1.5q-0.5-1.5-0.5-2.75t-0.5-2.75l-3-1.5v-4l-3-1.5q-1-4-1-5.5-2.5-4.5-4.5-6.75t-3-8.75q4-1 7-2.5t6-3.5q0.5-1 0.75-1.25t0.75-1.25h4l1.5-3h2.5q2-3 3-4h3q1-1 1.25-2.25t1.25-2.25h3q1-1 1.5-2t1.5-2h2.5q1.5-2 3-3.75t2.5-3.25h3l1.5-3 5.75-5.75t6.75-4.25v-2.5l6-4.5v-2.5q2-2 4-3.75t4-3.25v-3l4.5-3v-2.5q2-1 2.5-1.5v-3q1-1 2.25-1.25t2.25-1.25l1.5-6q1-0.5 1.25-0.5t1.25-0.5l1.5-6q2-1 3-1l1.5-7.5q0.5 0 2.5-1v-4.5h1.5q0.5-1.5 0.75-2.75t0.75-2.75h1.5v-4q1-0.5 1.25-0.75t1.25-0.75q0.5-2.5 0.75-4.5t0.75-4h1.5v-4.5h1.5v-4h1.5q0-2.5 0.25-5t0.75-5h1.5v-8.5l1.75-7t2-10.75 1.25-10.75-0.5-6.5q-1.5-1-5.75-1.5t-9.25-0.5-10 0.25-7.5 0.25h-441.5l-1.5 4.5q2.5 3 1.25 8.25t0.25 9.75h1v10h1.5q0.5 3 0.75 6.25t0.75 6.25h1.5v7h1.5v3h1v4h1.5v6h1.5q0.5 1.5 1.5 5.5h1.5v4h1.5v3h1v4h1.5q1 2.5 1.5 4.5t1.5 4h1.5v3h1q0.5 1.5 0.75 2.75t0.75 2.75l3 1.5q0.5 1.5 0.75 2.75t0.75 2.75q1 0.5 1.25 0.75t1.25 0.75v3q1 1 2.25 1.25t2.25 1.25v3q2 1 2.5 1.5v2.5l4.5 3v3q1.5 1 2.75 2t2.75 2v3q3 2.5 5.75 4.75t5.75 4.75q6 7.5 12.5 14h3q1 2 4 6h3q1 1.5 4 5.5h3q1 2 1 3h3q0.5 1 0.75 1.25t0.75 1.25h3q0.5 1.5 2.5 4.5 4 1 5.5 1.5v1q3.5 2 6.25 3.5t6.75 2.5q-0.5 5.5-2 7t-4 5.5v3h-1q-0.5 1.5-1.5 5.5l-3 1.5v4h-1.5q-0.5 1-0.5 2t-0.5 2l-3 1.5v3l-3 3v2.5h-1v3h-1.5v2.5h-1.5l-1.5 6q-2 1-3 1 0 2-1 6-2.5 4-4.5 6.25t-2.5 9.25q1 1 0.75 0.75t0.25 1.75q3 1.5 4.5 3 2-1 1.75-0.75t0.75-0.75q5-1.5 5-3.25t2.5-5.25q0.5-0.5 2.5-1.5v-4l3-1.5v-2.5h1.5v-3l2.5-3v-2.5l3-1.5q1-5 1.5-7 1-0.5 1.25-0.75t1.25-0.75q1-4 1.5-5.5l3-1.5q1-2.5 1.25-4.25t1.25-4.25l3-1.5v-4h1.5q1.5-3.5 3-6.25t2.5-6.75v0zM398 733q-2-2-2.75-1.75t-2.75-1.25q-4.5-3-5.75-8.75t-1.25-13.75q2.5-1.5 2-2.5t1-3q2-2 4-3.5t4.5-3.5q2.5-0.5 4.75-0.75t4.75-0.75v1.5h4.5q6 2 9.5 8.5 1.5 1.5 2.75 7.25t0.25 9.75h-1.5v4q-2 1-2.5 1.5-4.5 4.5-8.25 6t-13.25 1v0zM636 699l1.5 4.5h1v3h1.5q1.5 4 0.5 9.75t-2 8.25q-1.5 1.5-5.5 4.5v1h-3q0 1-1 3h-15.5q-1.5-2.5-2.75-2.5t-3.25-1.5q-4-4-4.75-9.25t-0.75-13.25q1-1.5 0.75-1t0.75-2q2.5-2.5 5-4.25t5-4.25q2.5-0.5 5.5-0.75t5.5-0.75q3 1 5.5 2.75t6 2.75v0zM169 284.5v2.5q-5 1.5-6.25 4.5t-3.75 7h-1.5v2.5q-1 0.5-1.25 0.75t-1.25 0.75q-3 5.5-4 14.25t-1.25 19 0.25 20.25 0.5 18.5v133.5q0 5-0.25 12.75l-0.5 15.5t0.25 14.5 2 10.75h1.5q0.5 2 1.5 7 1 0.5 1.25 0.75t1.25 0.75v2.5h1.5l1.5 6q1.5 1 2.75 2t2.75 2q1.5 2 3 3.5t2.5 3.5h3v1.5h3l1.5 3q1.5 0 5.5 1v1.5q3 0.5 6.25 0.75t6.25 0.75q1.5 0.5 5.5 1.5t7 0v-1.5q4.5-1 8.5-0.75t7-2.25q0.5-1 0.75-1.25t0.75-1.25h4.5v-1.5q0.5-0.5 0.75-1t0.75-1l1-1h3q0.5-1 0.75-1.25t0.75-1.25q1-0.5 4-1.5v-3q3-2 4.5-2.5v-3q0.5-0.5 2.5-1.5 7-13 7-32.5v-225h-1.5v-5.5h-1v-4h-1.5q-1-2.5-1.5-4.5t-1.5-4h-1.5v-3q-1-0.5-1.25-0.75t-1.25-0.75v-2.5l-6-4.5q0-0.5-1-2.5h-3l-3-4.5q-5.5-4-17.5-6.25t-21.5 0.75h-7l-1.5 3h-4.5v1q-1.5 0.5-5.5 1.5v1.5l-2.25 1.5t-3.25 1.5v0zM861 584q1-2.5 1.25-3.25t1.25-2.25h1.5v-3l3-1.5v-4q2-1 2.5-1.5 1-4 2.25-7.25t2.25-6.75v-238h-1.5v-5.5h-1.5v-4h-1.5v-3h-1v-4l-4.5-3v-4h-1.5q-3-4.5-7-8.5h-2.5l-3-4.5q-6-4-18-6.25t-21.5 0.75h-7l-1.5 3h-4v1q-1.5 0.5-2.75 0.75t-2.75 0.75v1.5l-2.25 1.5t-3.25 1.5v2.5q-5 1.5-6.25 4.5t-3.75 7h-1.5v2.5l-3 1.5v4.5h-1v4h-1.5v5.5h-1.5v202.5q0 10-0.75 22t2.25 20.5h1.5v2.5h1v4.5l3 1.5v4l3 1.5v3q0.5 0 2.5 1 2 2.5 3.75 4.5t3.25 4h3l1.5 3q1 0.5 2 0.75t2 0.75v1.5q1.5 0.5 5.5 1.75t8.75 2.5 9.5 1.5 7.25-0.25v-1.5q4-1 8-0.75t7.5-2.25q0.5-1 0.75-1.25t0.75-1.25h4l1.5-3 4.5-1.5v-1.5q1.5-1 2.25-1.25t3.25-1.25v0zM277 589.5h428q10 0 23.25 0.75t21.75-2.25q-1.5-8-1.5-18.75v-321.25l1.5-4.5q-2-6-3.75-12t-3.25-12l-3-1.5q-0.5-1.5-1.5-5.5h-1.5q-1.5-2-2.25-3.25t-1.75-3.75q-3-1-4-1.75l-3-2.25v-1.5h-3v-1.5q-2-1-4-1.5t-4.5-1.5v-1q-2-0.5-4-0.75t-4.5-0.75v-1.5q-4.5-1.5-11-2t-13.75-0.25l-14.5 0.5t-12.75 0.25v-88.5q0-10 0.75-22t-2.25-20q-5.5-16-16.75-25.75t-29.25-13.75h-1.5q-1.5 0-1.5 1.5l-3-1.5v1.5h-12.5v1h-4v1.5h-4.5l-1.5 3q-1.5 0.5-5.5 1.5-0.5 1-0.75 1.25t-0.75 1.25h-2.5l-1.5 3q-2 1.5-3.5 2.75t-3.5 2.75v3l-3 1.5v2.5q-2 1-2.5 1.5v3h-1.5q-1 3-1.5 6.25t-1.5 6.25h-1.5v126.5h-71.5v-90q0-11.5 0.25-24.75t-3.25-21.75h-1.5v-2.5h-1v-3l-3-1.5v-4q-4-3-5.5-4.5-4-4-7-8.5-2 0-6-1-0.5-1-0.5-1.5t-0.5-1.5q-2.5-0.5-4.5-0.75t-4-0.75v-1.5h-3v-1h-10v-1.5h-5.5v1.5h-11v1h-4.5v1.5h-2.5v1.5h-4.5l-1.5 3h-2.5q-0.5 1-0.75 1.25t-0.75 1.25h-3l-1.5 3q-1.5 1.5-3.25 2.75t-3.75 2.75v3q-0.5 0.5-2.5 1.5v2.5l-3 1.5v4.5h-1.5v2.5h-1v4.5h-1.5q-3 8.5-2.25 20.25t0.75 21.75v88.5q-10.5 0-23.5-0.5t-21.5 2h-8.5v1.5h-3v1.5h-5.5q-0.5 1-0.75 1.25t-0.75 1.25q-1.5 0.5-5.5 1.5l-1.5 3h-2.5q-1.5 1.5-4.5 5.5-2 1.5-3.5 2.75t-3.5 2.75q-5.5 8.5-7.75 21.75t-2.75 28.5 0 31 0.5 29.75v266z" />
<glyph unicode="&#x11e;" d="M853.5 149.5h-43v170.5h43q17.5 0 30-12.5t12.5-30v-85.5q0-17.5-12.5-30t-30-12.5v0zM853.5 362.5h-43v171h43q9 0 16.75-3.5t13.5-9.25 9-13.5 3.25-16.75v-85q0-9-3.25-16.75t-9-13.5-13.5-9.25-16.75-3.5v0zM853.5 576h-43v170.5h43q17.5 0 30-12.5t12.5-30v-85.5q0-17.5-12.5-30t-30-12.5v0zM298.5 874.5h469.5v-853h-469.5v853zM532.5 639.5q-16 0-29.75-6t-24.25-16.5-16.5-24.5-6-29.5q0-9.5 2.5-19.5l18.5-71q4.5-19 19.75-31.25t35.75-12.25 36 12.25 20 31.25l18 71q1.5 4.5 2 9.25t0.5 10.25q0 15.5-6 29.5t-16.25 24.5-24.25 16.5-30 6v0zM398.5 256.5h306.5l-14 99.5q-2.5 14.5-13.5 24.5t-25 10h-239.5q-14 0-25-10t-13.5-24.5l-14-99.5h38zM128 128v640q0 22 8.5 41.5t23 34 33.75 22.75 41.25 8.25h21.5v-853h-21.5q-22 0-41.25 8.25t-33.75 22.75-23 34-8.5 41.5v0z" />
<glyph unicode="&#x120;" d="M832 21.5h-640q-22 0-41.5 8.25t-34 22.75-22.75 34-8.25 41.5v405.5h853v-405.5q0-22-8.25-41.5t-22.75-34-34-22.75-41.5-8.25v0zM384 448h-170.5v-128h170.5v128zM384 277.5h-170.5v-128h170.5v128zM597.5 448h-171v-128h171v128zM597.5 277.5h-171v-128h171v128zM810.5 448h-170.5v-128h170.5v128zM810.5 277.5h-170.5v-128h170.5v128zM85.5 682.5q0 22 8.25 41.5t22.75 34 34 23 41.5 8.5h106.5v64q0 8.5 6.25 14.75t15.25 6.25 15.25-6.25 6.25-14.75v-64h341v64q0 8.5 6.25 14.75t15.25 6.25 15.25-6.25 6.25-14.75v-64h106.5q22 0 41.5-8.5t34-23 22.75-34 8.25-41.5v-106.5h-853v106.5zM704 618.5q13.5 0 25 5t20.25 13.75 13.75 20.5 5 24.75q0 21-12 37.25t-30.5 22.75v-60q0-8.5-6.25-14.75t-15.25-6.25-15.25 6.25-6.25 14.75v60q-18.5-6.5-30.5-22.75t-12-37.25q0-13 5-24.75t13.75-20.5 20.25-13.75 25-5v0zM320 618.5q13.5 0 25 5t20.25 13.75 13.75 20.5 5 24.75q0 21-12 37.25t-30.5 22.75v-60q0-8.5-6.25-14.75t-15.25-6.25-15.25 6.25-6.25 14.75v60q-18.5-6.5-30.5-22.75t-12-37.25q0-13 5-24.75t13.75-20.5 20.25-13.75 25-5v0z" />
<glyph unicode="&#x13d;" d="M452.5 639.5h46.5v-106.5h2.5q1.5 2.5 4 3.25t5.5 2.25q16 8.5 32.75 6t27.75-13.5q10-10 16-20.5t10.5-25q3.5-11 3.5-24.5v-109h-46v107.5t-4 21.5q-2 4-5.25 8.75t-6.75 7.25q-1.5 1-3.25 1.25t-3.25 1.75q-6.5 0-10.25-0.25t-6.25-1-5-2.5-6-4.75q-1.5-1-3.5-1.75t-3-2.25v-135.5h-46.5v287.5zM784.5 639.5h46.5v-106.5h1.5q2.5 3 6 4t7.5 2.5q12 5 23.5 5.25t21.25-3.25 17.75-10 13-14.5q7-10.5 11.5-27t4.5-33.5v-23.5q-4-14.5-7.5-27.25t-9.25-23.25-14.5-18.25-22.75-12.25q-5-1.5-11.25-1.5t-12.5 1-11.5 2.5-8.25 3.5-5.5 4.75-6.5 3.75v-14h-43.5v287.5zM274.5 637.5q14.5 0.5 22.75-4t12.25-14q3.5-8 3-15.75t-3.75-14.25-8.5-11-10.75-6q-9-2.5-17 0.75t-13.25 10-7 15.5 1.25 17.25q1.5 5.5 5.5 10.5t8 8q2 1 4 1.25t3.5 1.75v0zM347 579h45.5v-35h34.5v-43h-34.5v-75.5q0-10 1.5-19t9.5-11.5q3-3 7.5-2.75t9 1.5 8.75 3 6.75 2.25v-41.5q-5.5-1-10.75-3.5t-10.75-4q-5-1-12.25-1t-11.25 1h-7.5q-7 2-13.75 5.75t-10.75 9.25q-6.5 9-9 25.5t-3 35.75 0 39 0.5 35.75h-22.5v43h22.5v35zM226.5 498q0.5-4 1.5-8l2-8t-0.75-11.25-2.75-9.75q-4.5-14.5-9.5-23t-16-16.5q-0.5-1-1-1.75t-1-1.75q-4-2.5-9.5-4.75t-9.5-3.75-8-2-7.5-1.25-6.25-2.5-3.75-5.75q-2.5-2-2.5-5.5v-7.5q1-1 1.25-2t1.25-2q1-1.5 3.5-3.5t4-3q6-4 14-4t15.5-2.5q14.5-4 24.75-11.25t15.75-20.75q2-4.5 4.75-12.75t0.75-16.75l-2-8t-2.5-7q-2.5-5.5-5.25-11t-7.25-9q-8-5.5-18-9t-20.5-6h-21.5q-15 0-29.25 1.75t-23.75 7.75q-21.5 13.5-21.5 50 0.5 4 1.25 8.25t2.25 7.75q2.5 6.5 8 12.25t11 9.25q3.5 1.5 7.25 2.5t6.75 3.5q-4 2.5-7.5 7.5t-5.5 11.25-2 13.5 3 13.75q2 4 5.25 6.25t5.75 5.25q-9 4-17 13t-13 20.5-5.75 25 4.75 27q5.5 12 14.75 21.75t21.25 15.25q10.5 4.5 27 5.75t28.5-2.75q2.5-1 6.5-2.5t6.5-2.5q0-1 1-2 2.5-1 5.75-0.25t4.75 1.25q5.5 1 10.25 1t9.75 2q4 1 7.5 2.75t7.5 2.75v-42.5h-1v-1.5q-3.5-1-6.75-1.5t-7.25-1.5v0zM259.5 544h46v-192h-46v192zM619.5 544h45.5v-71.5q0-9-0.25-19.5t1.75-18v-11.5q1.5-7 4-14.5t9.5-10q1.5-1.5 2.25-1.25t3.25-0.75q6-2 10.5-1.25t8.75 2.75 7.75 4.75 7 5.25v135.5h46v-192h-45v15h-1q-2.5-4-6.25-5.5t-7.75-4q-16-8.5-33.5-6.25t-29 13.75q-12 12-17.25 32.5t-6.5 45-0.5 51 0.75 50.5v0zM150 506.5q-1.5-1.5-3.75-1.75t-4.75-1.25q-9-6-12.5-17v-5.5q-2.5-9 0.75-16.75t10-12.5 15.75-5.75 18 3q4.5 2 8.25 6.75t6 10.75 2.25 12.5-3.5 12.5q-5.5 8.5-13.75 12t-22.75 3v0zM850.5 500q-1.5-1.5-4.25-3t-6-3-6-3.25-3.25-3.25v-79q4.5-2.5 8.75-6.25t9.75-5.25q6.5-2 12.25 0.25t8.75 3.75q2.5 1.5 5.25 2.75t4.25 3.75q3 4 5.5 11.25t4.25 15.5 2 17-1.75 15.75q-2.5 8-5 14.25t-6.75 10.5-10.75 6.25-17 2v0zM152 335q-1.5-1-3.75-1t-4.75-1q-6.5-2.5-10-5.75t-6-10.25q-0.5-1-1-3.5t0-5q0.5-1 1.25-2.25t1.25-3.25q2.5-1 4.25-3.5t4.25-3.5q3-1.5 9.25-2.5t13.5-1.25 13.75 0.25 10 2q5.5 2.5 7.75 6t6.25 7q0.5 4 1 7.5t-2 6.5q-1.5 5.5-6 8.25t-10.75 4-13.5 1.25h-14.75z" />
</font>
</defs>
</svg>
